<svg xmlns="http://www.w3.org/2000/svg" viewBox="0 0 350 280">
  <path d="M76.73,268.72q-17.52,0-28.59-11.39t-11-29.47V180.53q0-14.43-9.85-22.53T0,149.24V130.76q17.54-.67,27.31-8.9t9.78-22.25V52.14q0-18.48,10.92-29.67T76.73,11.28h35.74V30H83.75Q71.47,30,66.08,36T60.69,56.32V103a34.63,34.63,0,0,1-8.63,23.26,41.81,41.81,0,0,1-22.53,13.42v.27A41.76,41.76,0,0,1,52,153.08a34.85,34.85,0,0,1,8.7,23.8v46.8q0,14.3,5.39,20.3t17.67,6h28.72v18.74Z" fill="#fbc9d4"/>
  <path d="M237.53,268.72V250h28.72q12.27,0,17.74-6t5.46-20.3v-46.8a35.09,35.09,0,0,1,8.63-23.73,41.24,41.24,0,0,1,22.39-13.22v-.27a41.56,41.56,0,0,1-22.39-13.48,34.75,34.75,0,0,1-8.63-23.2V56.32q0-14.16-5.4-20.23T266.25,30H237.53V11.28h35.74q17.93,0,28.79,11.19t10.85,29.67V99.61q0,14.16,9.85,22.32T350,130.76v18.48q-17.53.67-27.31,8.83t-9.78,22.46v47.33q0,18.21-11.05,29.53t-28.59,11.33Z" fill="#fbc9d4"/>
  <path d="M243.71,110.68a70.22,70.22,0,1,0-79,69.67v21.28H138.39v17.55h26.33v19.76h17.55V219.18H208.6V201.63H182.27V180.35A70.22,70.22,0,0,0,243.71,110.68Zm-122.87,0a52.66,52.66,0,1,1,52.65,52.66A52.66,52.66,0,0,1,120.84,110.68Z" fill="#1a1915"/>
</svg>
