<svg xmlns="http://www.w3.org/2000/svg" width="350" height="80" viewBox="0 0 350 80">
  <g>
    <path d="M27.93,73.37a10,10,0,0,1-7.44-2.89A10.2,10.2,0,0,1,17.62,63V51a6.91,6.91,0,0,0-2.57-5.72A11.79,11.79,0,0,0,8,43V38.34a11.58,11.58,0,0,0,7.1-2.26,6.91,6.91,0,0,0,2.55-5.65v-12A9.77,9.77,0,0,1,27.93,8h9.3v4.76H29.76c-2.13,0-3.66.51-4.6,1.51s-1.4,2.73-1.4,5.17V31.29a8.65,8.65,0,0,1-2.25,5.9,10.88,10.88,0,0,1-5.86,3.41v.07A10.9,10.9,0,0,1,21.49,44a8.72,8.72,0,0,1,2.27,6V61.93q0,3.63,1.4,5.16t4.6,1.52h7.47v4.76Z" fill="#fbc9d4"/>
    <path d="M55.4,52l12.21-31.7h7L59.21,58.82H51.44L36,20.32h7Z"/>
    <path d="M106,22.21a17.31,17.31,0,0,1,7,6.87,21,21,0,0,1,2.55,10.52A20.77,20.77,0,0,1,113,50.09a17.33,17.33,0,0,1-7,6.83,22.83,22.83,0,0,1-20.34,0,17.56,17.56,0,0,1-7.08-6.83A20.58,20.58,0,0,1,76,39.6a20.77,20.77,0,0,1,2.59-10.52,17.53,17.53,0,0,1,7.08-6.87,22.92,22.92,0,0,1,20.34,0ZM89.32,27a11.82,11.82,0,0,0-4.81,4.73,15.66,15.66,0,0,0-1.83,7.89,15.49,15.49,0,0,0,1.83,7.82,11.78,11.78,0,0,0,4.81,4.74,14.51,14.51,0,0,0,13,0,11.75,11.75,0,0,0,4.82-4.74A15.49,15.49,0,0,0,109,39.6a15.66,15.66,0,0,0-1.83-7.89A11.78,11.78,0,0,0,102.33,27a14.51,14.51,0,0,0-13,0Z"/>
    <path d="M154.75,24c2.82,2.88,4.24,7,4.24,12.45V58.82h-6.54V37q0-5.74-3-8.84a11,11,0,0,0-8.2-3.08,11.33,11.33,0,0,0-8.62,3.4q-3.24,3.41-3.23,9.92V58.82h-6.54V20.32h6.54v9.11a13.11,13.11,0,0,1,5.35-7.22,15.82,15.82,0,0,1,8.88-2.52A14.91,14.91,0,0,1,154.75,24Z"/>
    <path d="M200.75,37.57a11.69,11.69,0,0,1,2.92,7.92,12.19,12.19,0,0,1-4.21,9.68q-4.2,3.64-12.18,3.65H168.45V9.38H187q7.62,0,11.57,3.29a11.15,11.15,0,0,1,4,9,11.14,11.14,0,0,1-2.63,7.71,11.92,11.92,0,0,1-6.72,3.79A13.37,13.37,0,0,1,200.75,37.57ZM175,31.05h10.92q4.82,0,7.37-2.18a7.58,7.58,0,0,0,2.55-6.1,7.49,7.49,0,0,0-2.51-6q-2.52-2.17-7.69-2.17H175Zm19.08,20.12a7.93,7.93,0,0,0,2.84-6.52A7.86,7.86,0,0,0,194,38.17q-2.91-2.36-8.09-2.35H175V53.49h11.07Q191.24,53.49,194.07,51.17Z"/>
    <path d="M214.33,20.32l12.79,30.29L239,20.32h7.26L222.81,77.05h-7.4l8.19-18.86L207,20.32Z"/>
    <path d="M272.18,53.21v5.61H267.3q-6,0-9-2.81t-3-9.39V25.86H249.4V20.32h5.89V10.71h6.62v9.61h10.2v5.54h-10.2v20.9c0,2.47.46,4.17,1.4,5.08s2.55,1.37,4.85,1.37Z"/>
    <path d="M313.13,40.94H281.58q.21,6.59,3.84,9.88a12.72,12.72,0,0,0,8.88,3.3,13,13,0,0,0,7.94-2.35,9.69,9.69,0,0,0,3.91-6.28h7a16.05,16.05,0,0,1-3.2,7.16,16.67,16.67,0,0,1-6.43,4.91,21.94,21.94,0,0,1-8.92,1.75,20.72,20.72,0,0,1-10.06-2.39,17,17,0,0,1-6.86-6.83,21.27,21.27,0,0,1-2.48-10.49,21.47,21.47,0,0,1,2.48-10.52,17,17,0,0,1,6.86-6.87,20.72,20.72,0,0,1,10.06-2.38,20.25,20.25,0,0,1,10,2.38,16.67,16.67,0,0,1,6.54,6.38,17.62,17.62,0,0,1,2.26,8.84A18.82,18.82,0,0,1,313.13,40.94ZM305.36,30.7a10.36,10.36,0,0,0-4.52-4.28,14,14,0,0,0-6.26-1.4,13.09,13.09,0,0,0-9.05,3.26q-3.67,3.25-3.95,9.57H306.8A12.77,12.77,0,0,0,305.36,30.7Z"/>
    <path d="M312.73,73.37V68.61h7.48c2.13,0,3.66-.51,4.61-1.52s1.42-2.74,1.42-5.16V50.05a8.78,8.78,0,0,1,2.25-6,10.86,10.86,0,0,1,5.82-3.35V40.6a10.9,10.9,0,0,1-5.82-3.42,8.7,8.7,0,0,1-2.25-5.89V19.44q0-3.6-1.4-5.14c-.94-1-2.48-1.54-4.63-1.54h-7.48V8H322a10.07,10.07,0,0,1,7.49,2.85,10.17,10.17,0,0,1,2.83,7.53V30.43a6.89,6.89,0,0,0,2.56,5.67A11.7,11.7,0,0,0,342,38.34V43a11.76,11.76,0,0,0-7.11,2.24A7,7,0,0,0,332.35,51V63A9.87,9.87,0,0,1,322,73.37Z" fill="#fbc9d4"/>
  </g>
  <path d="M106.1,22.72a17.33,17.33,0,0,1,7.05,6.87,21,21,0,0,1,2.55,10.52,20.77,20.77,0,0,1-2.55,10.49,17.36,17.36,0,0,1-7.05,6.83,22.83,22.83,0,0,1-20.34,0,17.62,17.62,0,0,1-7.08-6.83A20.57,20.57,0,0,1,76.1,40.11a20.77,20.77,0,0,1,2.58-10.52,17.59,17.59,0,0,1,7.08-6.87,22.92,22.92,0,0,1,20.34,0ZM89.43,27.49a11.84,11.84,0,0,0-4.82,4.73,15.66,15.66,0,0,0-1.83,7.89,15.49,15.49,0,0,0,1.83,7.82,11.72,11.72,0,0,0,4.82,4.73,14.43,14.43,0,0,0,13,0,11.7,11.7,0,0,0,4.81-4.73,15.49,15.49,0,0,0,1.83-7.82,15.66,15.66,0,0,0-1.83-7.89,11.82,11.82,0,0,0-4.81-4.73,14.51,14.51,0,0,0-13,0Z"/>
  <polygon points="105.91 66.12 98.85 66.12 98.85 57.81 92.55 57.81 92.55 66.12 85.48 66.12 85.48 72.42 92.55 72.42 92.55 78.23 98.85 78.23 98.85 72.42 105.91 72.42 105.91 66.12"/>
</svg>
