<svg xmlns="http://www.w3.org/2000/svg" width="136.52mm" height="160mm" viewBox="0 0 386.97 453.54">
  <path d="M164.17,180.72q-2.7,5-70.1,123.5c-4.9,8.3-10.8,12.5-17.7,12.5H11.27c-7.7,0-12.1-7.5-8.5-14.4l69-121.3q.3,0,0-.3l-43.9-75.6c-4.3-7.8.3-14.1,8.5-14.1h65.1c7.3,0,13.3,4.1,18,12.2Zm219.9-163.9-144,253v.3l91.6,166.6c3.9,7.1.2,14.1-8.5,14.1H258c-7.6,0-13.6-4-18-12.2l-92.4-168.5q5-8.7,144.8-255.2c4.6-8.1,10.4-12.2,17.5-12.2h65.7c8,0,12.3,6.7,8.5,14.1Z" fill="none" stroke="#000" stroke-miterlimit="10" stroke-width="3"/>
</svg>
